PathFileType	4	(X/Y/Z)	C:/Users/beibeiliu/ov580/test_trc/User1\sequence.11_training_dense_right.trc
DataRate	CameraRate	NumFrames	NumMarkers	Units	OrigDataRate	OrigDataStartFrame	OrigNumFrames
120	120	19	19	mm	120	299	341
Frame#	Time	ThumbCMC			ThumbMCP			ThumbIP			ThumbTip			IndexMCP			IndexPIP			IndexTip			MiddleMCP			MiddlePIP			MiddleTip			RingMCP			RingPIP			RingTip			PinkyMCP			PinkyPIP			PinkyTip			BackHand1			BackHand2			BackHand3	
		X0	Y0	Z0	X1	Y1	Z1	X2	Y2	Z2	X3	Y3	Z3	X4	Y4	Z4	X5	Y5	Z5	X6	Y6	Z6	X7	Y7	Z7	X8	Y8	Z8	X9	Y9	Z9	X10	Y10	Z10	X11	Y11	Z11	X12	Y12	Z12	X13	Y13	Z13	X14	Y14	Z14	X15	Y15	Z15	X16	Y16	Z16	X17	Y17	Z17	X18	Y18	Z18	
298	2.48333	227.175	118.863	55.6882	212.61	139.698	22.0959	191.013	132.533	0.750817	165.566	114.966	-4.54717	228.659	93.6352	-28.8465	227.894	96.2665	-59.4601	216.358	97.2828	-82.336	218.221	64.9397	-30.5664	220.276	60.6113	-60.689	215.981	55.8974	-89.6539	197.996	52.1261	-23.137	195.431	43.5865	-46.9048	190.543	37.8017	-76.6476	164.032	46.5321	-4.18841	157.754	42.3828	-19.9219	151.288	31.8931	-38.7704	202.716	53.85	28.2986	208.785	52.6317	65.1322	229.005	76.8939	42.3923	
299	2.49167	226.565	118.789	55.9288	216.745	143.673	21.2463	196.709	141.342	2.45497	169.081	123.123	-5.98249	229.916	95.6708	-26.8974	227.514	95.1561	-54.3084	217.279	96.0281	-81.6094	219.481	64.8271	-32.7519	218.773	59.7576	-57.4776	215.562	55.0239	-86.5472	199.787	51.6909	-22.9087	197.397	43.5985	-49.2339	191	39.319	-75.0493	168.166	49.0217	-1.06138	157.479	41.7858	-22.2612	150.063	30.8745	-42.3856	206.254	55.3858	32.3013	207.905	51.516	62.2565	232.13	80.7836	43.5994	
300	2.5	228.638	118.322	57.2256	222.166	148.551	28.559	204.082	150.42	0.931489	179.765	141.052	-8.34799	231.118	94.4045	-27.9857	228.21	94.2222	-54.4227	219.047	95.7178	-82.8731	221.075	66.1557	-29.8578	222.398	62.8784	-55.4302	213.861	53.2117	-86.4921	200.325	51.5155	-18.9462	199.398	43.305	-45.8941	194.012	41.792	-71.257	167.559	46.1652	-3.81497	156.537	39.2908	-20.9449	153.48	31.5757	-38.5694	208.145	57.1382	29.3461	211.576	54.263	62.7646	233.692	81.7987	43.8132	
301	2.50833	234.106	122.715	59.2243	226.046	147.791	31.9326	213.669	159.246	7.16061	189.952	154.401	-11.7087	232.033	95.6437	-27.0011	228.462	95.0238	-54.6513	218.154	93.7152	-82.1887	219.7	64.6474	-31.0343	220.998	61.2406	-57.6787	214.052	53.316	-87.9813	200.479	53.0812	-21.6054	200.032	45.4553	-45.1026	194.968	41.7078	-73.7391	170.779	48.6559	-4.65757	159.498	42.1784	-16.2392	151.223	27.7254	-39.8251	206.869	57.6753	32.7787	212.389	53.7237	66.9318	231.307	79.7546	41.2201	
302	2.51667	232.802	120.212	57.5723	229.367	147.289	35.2536	221.6	161.596	10.7485	204.464	167.633	-6.554	231.49	98.3281	-25.157	225.422	94.5208	-54.9699	217.238	95.0034	-82.7342	218.358	69.6249	-27.8083	217.313	62.0111	-58.0089	213.198	54.4414	-87.1953	198.168	52.0325	-20.9071	195.421	44.7501	-45.9794	190.23	39.6009	-71.7772	169.947	49.0086	-2.16542	157.212	41.2468	-15.8868	150.266	30.2378	-35.5424	209.491	60.1164	30.1789	213.487	56.5939	67.4511	233.175	81.4564	41.5143	
303	2.525	236.397	121.858	59.1428	233.201	148.279	35.6182	229.394	166.391	12.8459	218.171	179.504	-3.18452	229.888	97.5481	-24.3552	228.573	97.8531	-54.1362	219.767	96.1359	-77.4283	216.924	68.0772	-30.7673	219.453	65.8144	-60.1758	212.963	58.6309	-85.7876	198.231	56.5393	-16.8861	194.456	45.2703	-45.2407	190.658	41.3917	-71.9234	166.81	47.8419	-1.09453	157.828	43.4419	-13.4076	153.172	30.244	-37.3797	208.617	62.1259	28.4943	213.19	57.5402	63.9941	234.897	84.6373	42.9475	
304	2.53333	236.027	120.25	59.5887	236.096	147.092	39.3272	234.144	163.625	17.6444	228.328	180.517	2.37806	232.152	101.22	-28.0745	228.155	99.4746	-50.8713	217.328	96.6851	-79.4917	218.659	72.3159	-30.6539	216.292	67.0862	-57.4625	213.174	61.0104	-89.5472	199.002	58.6073	-21.6695	195.616	48.533	-48.6669	189.611	44.7224	-69.9056	166.669	49.6717	0.493992	158.414	45.4273	-11.9719	149.2	32.0311	-29.9324	208.124	61.7673	29.0207	213.218	56.2424	61.8537	237.488	84.0569	43.9796	
305	2.54167	237.675	119.622	61.376	238.219	146.431	45.3346	238.759	164.007	19.5467	236.513	182.179	4.34633	230.132	102.02	-24.535	228.12	101.756	-50.4113	219.95	99.2053	-77.1309	217.096	74.4427	-27.7578	215.592	70.4278	-59.6548	210.639	64.5398	-86.7802	197.116	58.743	-21.7714	195.182	52.2435	-44.4178	188.943	47.4978	-70.9675	166.368	52.83	4.66424	153.736	43.8119	-13.6439	150.679	35.4273	-31.9234	207.258	61.3736	32.5037	211.713	53.5983	62.1658	235.929	85.0259	44.2668	
306	2.55	240.409	120.055	60.4309	241.936	147.59	45.017	245.483	167.069	23.8508	244.008	183.267	12.4422	231.668	104.726	-28.2941	225.049	101.919	-51.2981	217.747	99.2156	-77.1432	214.989	74.3518	-29.7609	214.308	72.1409	-60.4825	206.723	65.2693	-86.2378	195.674	60.9168	-19.1454	192.438	53.828	-45.9275	183.943	46.2829	-71.7426	167.086	54.0144	0.307378	155.271	47.6589	-9.7787	146.599	31.4538	-31.8047	208.145	63.104	32.6629	210.652	54.8383	65.1107	232.433	82.4374	41.0664	
307	2.55833	240.107	118.282	60.3282	242.162	144.373	44.9083	247.73	163.47	27.8746	254.32	185.527	13.6263	226.231	101.7	-28.2795	226.661	105.294	-55.2429	219.678	104.082	-77.1253	214.758	75.5132	-31.4569	211.755	72.1784	-60.3073	205.944	67.2652	-86.3081	192.599	58.7198	-19.6147	191.069	55.6483	-46.5458	182.742	49.3891	-72.9868	162.973	53.8197	3.5692	151.51	47.0807	-12.7986	145.884	34.931	-32.8632	203.99	61.9024	29.6264	212.927	58.1152	59.9117	234.238	82.598	40.7518	
308	2.56667	240.278	114.89	60.0739	245.73	141.513	50.0961	252.159	162.066	32.281	258.805	181.237	19.8769	226.341	102.317	-25.1743	222.229	102.279	-54.2286	217.425	101.858	-74.3157	210.988	73.6914	-31.3442	208.534	71.4078	-55.3208	202.337	67.5752	-86.4792	191.354	58.913	-20.6961	186.507	53.2818	-43.8415	181.97	52.5393	-69.5233	166.21	57.8241	4.00362	151.307	49.212	-9.79459	142.138	34.6601	-31.5632	204.1	61.8091	29.6965	211.697	54.2615	59.7635	233.27	82.9473	41.304	
309	2.575	242.372	112.356	61.7894	251.382	140.85	46.4249	259.991	161.519	30.3005	265.024	176.992	23.4508	230.352	104.646	-26.3157	224.893	102.422	-49.8473	218.291	102.118	-75.5818	211.362	74.0589	-26.6155	207.42	70.391	-58.6905	200.331	67.3144	-85.5101	191.512	60.8045	-21.6627	186.118	53.3378	-43.8054	178.868	49.8704	-70.7583	161.713	56.5398	4.56088	151.819	50.935	-7.67994	142.512	37.6007	-27.0771	206.661	61.0065	33.3121	210.426	51.0115	62.9707	233.572	78.3086	40.3721	
310	2.58333	245.716	112.299	61.3658	250.252	136.415	49.0211	263.943	157.009	36.7879	271.631	173.109	26.6045	230.578	103.211	-25.9385	226.7	102.503	-47.8358	219.026	101.071	-72.6267	211.492	75.2616	-27.9075	207.078	71.2435	-54.91	203.51	69.5124	-85.8301	189.903	60.3181	-16.5372	187.583	57.181	-46.6841	180.668	53.8371	-71.3628	160.648	55.7403	4.31653	149.728	52.7034	-12.3526	139.056	38.1854	-28.2725	207.12	60.155	30.1114	211.391	52.4737	62.6608	233.636	78.7642	41.0574	
311	2.59167	245.506	106.873	62.3069	254.6	132.063	54.0862	264.311	149.913	38.0131	276.738	168.239	31.4527	231.338	99.4422	-23.7795	228.813	101.092	-47.0908	224.487	100.369	-77.2648	214.214	74.7829	-30.2744	209.076	70.2563	-55.5875	203.667	67.3834	-83.6485	192.842	62.1034	-18.7623	187.208	54.5818	-47.2614	180.876	52.0526	-72.4461	161.717	56.9884	6.47491	147.949	50.8466	-7.52187	140.56	40.2292	-28.7486	205.016	58.9767	31.1727	209.967	48.5422	61.168	233.481	75.1466	43.2482	
312	2.6	247.612	103.673	64.5745	257.293	127.852	53.0285	271.174	147.6	37.6094	280.506	163.579	28.9534	235.129	98.1383	-24.9007	230.545	96.7653	-49.7834	225.821	95.7537	-71.8487	215.774	71.2866	-28.8555	212.283	67.829	-56.8149	205.024	64.3467	-84.5075	191.808	56.9364	-21.659	187.884	53.1427	-45.5403	181.947	49.1869	-72.9961	162.115	54.9848	1.02668	149.374	51.4507	-11.6435	136.451	35.8951	-26.6776	204.118	51.6836	31.3569	212.687	47.8828	59.6884	238.001	72.033	41.4406	
313	2.60833	247.155	99.9342	61.0591	259.793	125.613	53.9	272.647	143.216	38.5873	284.849	159.016	32.9564	232.847	91.569	-22.4949	233.985	94.6787	-49.9807	228.188	91.5851	-72.994	212.752	63.8622	-28.6954	210.537	62.5487	-56.0846	206.303	59.3638	-84.9705	190.913	52.767	-16.749	187.537	47.759	-43.8965	181.603	44.9561	-69.2208	161.101	51.9701	2.21171	149.796	47.7355	-12.9028	138.929	34.0249	-23.6579	204.748	52.3916	28.6122	208.83	40.9244	64.6824	234.926	67.0232	43.1654	
314	2.61667	251.371	98.1311	64.828	257.552	121.645	53.6609	271.209	140.798	33.5195	284.54	155.934	30.3163	235.912	88.769	-25.7731	235.034	89.9642	-48.0257	227.667	87.4301	-73.7426	215.619	61.9849	-28.5997	213.192	59.0917	-59.2094	204.18	53.3969	-83.1229	192.491	49.9204	-19.0151	190.498	46.0863	-44.1118	184.548	41.6142	-71.6401	165.978	50.4953	2.86306	151.973	44.9808	-11.501	143.564	31.9532	-28.3357	202.843	47.3782	29.0394	212.333	42.6625	61.7254	237.383	66.0159	43.4028	
315	2.625	249.313	94.1567	64.5873	258.769	119.769	53.1917	270.346	138.208	35.3349	285.702	154.157	32.8385	234.59	85.5639	-24.0997	231.653	84.8434	-47.085	229.439	84.0608	-77.4883	216.78	60.8863	-27.2087	211.309	54.8829	-57.4652	207.388	53.4997	-83.979	192.256	45.8632	-20.8152	189.938	42.2724	-43.0265	184.709	38.4862	-71.9564	162.75	45.4658	1.40863	151.609	42.0939	-12.1113	138.745	26.8029	-27.858	205.31	45.6935	28.7477	211.067	39.1822	63.5598	237.752	61.594	41.4188	
316	2.63333	251.181	94.1139	63.8994	258.004	119.556	49.0025	271.093	137.669	37.1464	284.787	154.615	30.4167	237.317	86.8748	-27.0231	234.835	86.8146	-52.0834	227.542	82.8256	-76.3318	217.948	61.153	-29.8036	212.933	55.7719	-53.9249	204.918	49.566	-83.8858	194.084	47.8325	-20.4979	188.699	39.3855	-44.7259	180.536	34.0812	-71.47	163.052	45.6532	1.05751	153.5	41.21	-8.47435	140.099	25.7787	-25.5213	206.039	44.8979	33.3971	212.826	36.2465	65.6103	239.727	63.1062	41.2492	
